<?xml version="1.0" encoding="UTF-8"?>
<svg width="164px" height="164px" viewBox="0 0 164 164" version="1.1" xmlns="http://www.w3.org/2000/svg" xmlns:xlink="http://www.w3.org/1999/xlink">
    <!-- Generator: Sketch 50.2 (55047) - http://www.bohemiancoding.com/sketch -->
    <title>icon/share</title>
    <desc>Created with Sketch.</desc>
    <defs>
        <path d="M111.818182,44.5714286 C124.192727,44.5714286 134.107273,34.6171429 134.107273,22.2857143 C134.107273,9.95428571 124.192727,0 111.818182,0 C99.4436364,0 89.4545455,9.95428571 89.4545455,22.2857143 C89.4545455,34.6171429 99.4436364,44.5714286 111.818182,44.5714286 Z M52.1818182,44.5714286 C64.5563636,44.5714286 74.4709091,34.6171429 74.4709091,22.2857143 C74.4709091,9.95428571 64.5563636,0 52.1818182,0 C39.8072727,0 29.8181818,9.95428571 29.8181818,22.2857143 C29.8181818,34.6171429 39.8072727,44.5714286 52.1818182,44.5714286 Z M52.1818182,59.4285714 C34.8127273,59.4285714 0,68.12 0,85.4285714 L0,104 L104.363636,104 L104.363636,85.4285714 C104.363636,68.12 69.5509091,59.4285714 52.1818182,59.4285714 Z M111.818182,59.4285714 C109.656364,59.4285714 107.196364,59.5771429 104.587273,59.8 C113.234545,66.04 119.272727,74.4342857 119.272727,85.4285714 L119.272727,104 L164,104 L164,85.4285714 C164,68.12 129.187273,59.4285714 111.818182,59.4285714 Z" id="path-1"></path>
    </defs>
    <g id="icon/share" stroke="none" stroke-width="1" fill="none" fill-rule="evenodd">
        <g id="ic_group_24px" transform="translate(0.000000, 3.000000)">
            <mask id="mask-2" fill="white">
                <use xlink:href="#path-1"></use>
            </mask>
            <use id="Shape" fill="#9AA0A6" fill-rule="nonzero" xlink:href="#path-1"></use>
        </g>
    </g>
</svg>